<svg width="40" height="40" viewBox="0 0 40 40" fill="none" xmlns="http://www.w3.org/2000/svg">
<path d="M22.8375 19.375H22.7588L20.4419 21.6919C20.32 21.8138 20.16 21.875 20 21.875C19.84 21.875 19.68 21.8138 19.5581 21.6919L17.2413 19.375H17.1625C15.2781 19.375 13.75 20.9031 13.75 22.7875V25.625H26.25V22.7875C26.25 20.9031 24.7219 19.375 22.8375 19.375Z" fill="#FF385C"/>
<path d="M18.125 18.2444V18.4913L20 20.3662L21.875 18.4913V18.2444C22.995 17.5956 23.75 16.3875 23.75 15C23.75 12.9288 22.0712 11.25 20 11.25C17.9288 11.25 16.25 12.9288 16.25 15C16.25 16.3875 17.005 17.5956 18.125 18.2444Z" fill="#FF385C"/>
<path d="M5 37.5C5 36.4644 4.16062 35.625 3.125 35.625C2.08938 35.625 1.25 36.4644 1.25 37.5V38.75H5V37.5Z" fill="#FF385C"/>
<path d="M3.125 35.625C3.81536 35.625 4.375 35.0654 4.375 34.375C4.375 33.6846 3.81536 33.125 3.125 33.125C2.43464 33.125 1.875 33.6846 1.875 34.375C1.875 35.0654 2.43464 35.625 3.125 35.625Z" fill="#FF385C"/>
<path d="M36.875 35.625C35.8394 35.625 35 36.4644 35 37.5V38.75H38.75V37.5C38.75 36.4644 37.9106 35.625 36.875 35.625Z" fill="#FF385C"/>
<path d="M36.875 35.625C37.5654 35.625 38.125 35.0654 38.125 34.375C38.125 33.6846 37.5654 33.125 36.875 33.125C36.1846 33.125 35.625 33.6846 35.625 34.375C35.625 35.0654 36.1846 35.625 36.875 35.625Z" fill="#FF385C"/>
<path d="M5 5.625C5 4.58938 4.16062 3.75 3.125 3.75C2.08938 3.75 1.25 4.58938 1.25 5.625V6.875H5V5.625Z" fill="#FF385C"/>
<path d="M3.125 3.75C3.81536 3.75 4.375 3.19036 4.375 2.5C4.375 1.80964 3.81536 1.25 3.125 1.25C2.43464 1.25 1.875 1.80964 1.875 2.5C1.875 3.19036 2.43464 3.75 3.125 3.75Z" fill="#FF385C"/>
<path d="M36.875 3.75C35.8394 3.75 35 4.58938 35 5.625V6.875H38.75V5.625C38.75 4.58938 37.9106 3.75 36.875 3.75Z" fill="#FF385C"/>
<path d="M36.875 3.75C37.5654 3.75 38.125 3.19036 38.125 2.5C38.125 1.80964 37.5654 1.25 36.875 1.25C36.1846 1.25 35.625 1.80964 35.625 2.5C35.625 3.19036 36.1846 3.75 36.875 3.75Z" fill="#FF385C"/>
<path d="M20 8.125C13.4519 8.125 8.125 13.4519 8.125 20C8.125 26.5481 13.4519 31.875 20 31.875C26.5481 31.875 31.875 26.5481 31.875 20C31.875 13.4519 26.5481 8.125 20 8.125ZM20 30.625C14.1413 30.625 9.375 25.8587 9.375 20C9.375 14.1413 14.1413 9.375 20 9.375C25.8587 9.375 30.625 14.1413 30.625 20C30.625 25.8587 25.8587 30.625 20 30.625Z" fill="#FF385C"/>
<path d="M20 4.375C11.3844 4.375 4.375 11.3844 4.375 20C4.375 28.6156 11.3844 35.625 20 35.625C28.6156 35.625 35.625 28.6156 35.625 20C35.625 11.3844 28.6156 4.375 20 4.375ZM20 34.375C12.0738 34.375 5.625 27.9269 5.625 20C5.625 12.0731 12.0738 5.625 20 5.625C27.9263 5.625 34.375 12.0731 34.375 20C34.375 27.9269 27.9263 34.375 20 34.375Z" fill="#FF385C"/>
<path d="M4.67063 28.4481C3.25063 25.8769 2.5 22.9556 2.5 20C2.5 17.275 3.10875 14.6637 4.31 12.2406L3.19 11.685C1.9025 14.2831 1.25 17.08 1.25 20C1.25 23.1669 2.05438 26.2969 3.57625 29.0519L4.67063 28.4481Z" fill="#FF385C"/>
<path d="M30.5287 35.5169L29.8256 34.4831C26.9231 36.4569 23.5256 37.5 20 37.5C15.8156 37.5 11.7662 36 8.59811 33.2763L7.78311 34.2238C11.1781 37.1425 15.5169 38.75 20 38.75C23.7769 38.75 27.4181 37.6319 30.5287 35.5169Z" fill="#FF385C"/>
<path d="M35.69 12.2406C36.8913 14.6637 37.5 17.275 37.5 20C37.5 22.7581 36.8769 25.3975 35.6481 27.8444L36.765 28.4056C38.0819 25.7831 38.75 22.955 38.75 20C38.75 17.08 38.0975 14.2831 36.81 11.685L35.69 12.2406Z" fill="#FF385C"/>
<path d="M8.36124 5.29813L9.13749 6.27812C12.2562 3.80625 16.0125 2.5 20 2.5C23.895 2.5 27.5812 3.75188 30.66 6.12063L31.4225 5.12937C28.1231 2.59125 24.1731 1.25 20 1.25C15.7275 1.25 11.7031 2.64938 8.36124 5.29813Z" fill="#FF385C"/>
</svg>
